# xmcd
#
# Track frame offsets:
#	150
#	12654
#	24138
#	35687
#	49957
#	60142
#	73810
#	83966
#	98079
#	109545
#	119802
#	135888
#	149781
#	160839
#	174752
#	186269
#	199163
#
# Disc length: 2840 seconds
#
# Revision: 1
# Processed by: cddbd v1.5.2PL0 Copyright (c) Steve Scherf et al.
# Submitted via: audiograbber 1.83.01
#
DISCID=ea0b1611
DTITLE=Various Artist - The Best Of The Soul Girls, Vol. 1
DYEAR=2008
DGENRE=Soul
TTITLE0=Fontella Bass - Now That I've Found A Good Thing
TTITLE1=Tina Turner - Cussin', Cryin' And Carryin' On
TTITLE2=Margie Hendrix - Don't Destroy Me
TTITLE3=Tommie Young - She Don't Have To See You
TTITLE4=Gwen Davis - I Can't Be Your Part Time Baby
TTITLE5=Ann Sexton - You're Letting Me Down
TTITLE6=Zilla Mayes - All I Want Is You
TTITLE7=Barbara West - Will He Come Back
TTITLE8=Geraldine Hunt - Sneak Around
TTITLE9=Ella Washington - The Affair
TTITLE10=Tommie Young - Do You Still Feel The Same Way
TTITLE11=Alder Ray Black - Just Because The Package Has Been Unwrapped
TTITLE12=Barbara West - You're No Good
TTITLE13=Ann Sexton - You're Gonna Miss Me
TTITLE14=Fontella Bass - I Need Love
TTITLE15=Shay Holiday - It's Not How Long You Make It
TTITLE16=Ella Washington - He Called Me Baby
EXTD=
EXTT0=
EXTT1=
EXTT2=
EXTT3=
EXTT4=
EXTT5=
EXTT6=
EXTT7=
EXTT8=
EXTT9=
EXTT10=
EXTT11=
EXTT12=
EXTT13=
EXTT14=
EXTT15=
EXTT16=
PLAYORDER=
